GIL11_xslow1_RRA_states
nRows=6
nColumns=47

# SIMM Motion File Header:
name GIL11_xslow1_RRA_states
datacolumns 47
datarows 6
otherdata 1
range 0.62383000000000022000 0.62633000000000028000
endheader
time	pelvis_tx	pelvis_ty	pelvis_tz	pelvis_tilt	pelvis_list	pelvis_rotation	hip_flexion_r	hip_adduction_r	hip_rotation_r	knee_angle_r	ankle_angle_r	subtalar_angle_r	mtp_angle_r	hip_flexion_l	hip_adduction_l	hip_rotation_l	knee_angle_l	ankle_angle_l	subtalar_angle_l	mtp_angle_l	lumbar_extension	lumbar_bending	lumbar_rotation	pelvis_tx_u	pelvis_ty_u	pelvis_tz_u	pelvis_tilt_u	pelvis_list_u	pelvis_rotation_u	hip_flexion_r_u	hip_adduction_r_u	hip_rotation_r_u	knee_angle_r_u	ankle_angle_r_u	subtalar_angle_r_u	mtp_angle_r_u	hip_flexion_l_u	hip_adduction_l_u	hip_rotation_l_u	knee_angle_l_u	ankle_angle_l_u	subtalar_angle_l_u	mtp_angle_l_u	lumbar_extension_u	lumbar_bending_u	lumbar_rotation_u
      0.62383000000000022000	      0.35668562443702589000	      0.87152112418596173000	     -0.32960644091891139000	     -3.50534142053483060000	      0.86267131533167518000	      2.25459041207161140000	     30.46659354992367600000	     -3.24785910368113170000	      4.58089553241122350000	    -28.58309368628755800000	      1.07974262452572160000	      0.00000000000000449741	     -0.00000000000001131579	     -2.07547950632804310000	      5.29514271147861580000	     10.77480161435678100000	     -4.57037946412940420000	      9.08198622016063160000	     -0.00000000000003233075	     -0.00000000000003272299	     -3.72322593569539030000	     -0.04551647071255676000	     -2.11289880466371290000	      0.50077028014160541000	     -0.09684859027506330400	      0.00864427644074717600	    -11.96263128301069800000	     -2.60274966352216270000	     10.20534533476714000000	      0.64737926305457205000	      9.80764432461228890000	     19.30399086482302800000	    270.97042055794776000000	    -19.27051324499176800000	      0.00000000000001653289	     -0.00000000000000446023	    -21.62782898450400600000	     -2.05853502101592860000	     14.77875568350045100000	     -7.19485018278667890000	     32.98216664190976400000	     -0.00000000000022335852	     -0.00000000000030762349	      7.58426711426465340000	     -1.68006294470773240000	     -7.34473493779822920000
      0.62433000000000027000	      0.35693611580939627000	      0.87147266046679706000	     -0.32960204426772255000	     -3.51131451717612770000	      0.86139042727272519000	      2.25965888760423580000	     30.46684626474262500000	     -3.24296972872981690000	      4.59061716727518570000	    -28.44759441786345300000	      1.07001612600320280000	      0.00000000000000450569	     -0.00000000000001131783	     -2.08630130513270150000	      5.29413346017787050000	     10.78212090887757000000	     -4.57399710121723850000	      9.09846853471356810000	     -0.00000000000003243805	     -0.00000000000003288323	     -3.71943418725931350000	     -0.04637898968402464500	     -2.11651524165597850000	      0.50119589865653524000	     -0.09700571150575808300	      0.00894168768828334380	    -11.92953214903885600000	     -2.52088665844520590000	     10.06893771189203700000	      0.36311427399878493000	      9.74969173619560970000	     19.58242663769946300000	    271.02620612306822000000	    -19.63529808648392100000	      0.00000000000001655713	     -0.00000000000000482043	    -21.65969432499517900000	     -1.97861064502746280000	     14.49824517911632200000	     -7.27559321602925200000	     32.94715100112712500000	     -0.00000000000020304875	     -0.00000000000037288943	      7.58259134280675440000	     -1.76987876926359640000	     -7.12098245789754180000
      0.62483000000000022000	      0.35718682102646526000	      0.87142411905041883000	     -0.32959749990315540000	     -3.51727073024493950000	      0.86015034129884804000	      2.26465973745342990000	     30.46695629812314700000	     -3.23810957913367490000	      4.60047782746820570000	    -28.31206793330144600000	      1.06010751769848710000	      0.00000000000000451418	     -0.00000000000001132016	     -2.09713952909656730000	      5.29316395801381740000	     10.78929969558178200000	     -4.57765494587463810000	      9.11493341423420130000	     -0.00000000000003253994	     -0.00000000000003307632	     -3.71564347815916960000	     -0.04728620630910988100	     -2.12001973938709120000	      0.50162566134413211000	     -0.09715937674080549200	      0.00923506697833469460	    -11.89509840632514900000	     -2.43954800670302330000	      9.93485627428555420000	      0.07665317525714487900	      9.69073610196796410000	     19.86007258278616000000	    271.07927278547311000000	    -19.99893487642795600000	      0.00000000000001554062	     -0.00000000000000498197	    -21.69353030880836600000	     -1.89954329513203680000	     14.21675131923914000000	     -7.35566732131053320000	     32.91239343367745800000	     -0.00000000000019374688	     -0.00000000000046167425	      7.58011271589254590000	     -1.85883544037538080000	     -6.89694384467441510000
      0.62533000000000027000	      0.35743774216112323000	      0.87137550166531008000	     -0.32959280990392575000	     -3.52320939476652620000	      0.85895078806944325000	      2.26959413799617060000	     30.46692255379019800000	     -3.23327916267409420000	      4.61047710065465210000	    -28.17651560609155600000	      1.05001739570367580000	      0.00000000000000452166	     -0.00000000000001132233	     -2.10799516147506780000	      5.29223377168722480000	     10.79633750901695400000	     -4.58135265593715160000	      9.13138097133501600000	     -0.00000000000003263998	     -0.00000000000003332212	     -3.71185420588804370000	     -0.04823767236821206000	     -2.12341212029072680000	      0.50205956580349942000	     -0.09730959026357698100	      0.00952422682119186300	    -11.85933980896873800000	     -2.35875663651375020000	      9.80313970466445280000	     -0.21199233970406892000	      9.63076026514246840000	     20.13688297136697600000	    271.12957330133543000000	    -20.36134375022586300000	      0.00000000000001543997	     -0.00000000000000447226	    -21.72932245673735400000	     -1.82134721742364180000	     13.93435074216832000000	     -7.43506572244818380000	     32.87789474679636500000	     -0.00000000000019309299	     -0.00000000000050050516	      7.57684602241473560000	     -1.94687546283650010000	     -6.67251424521997190000
      0.62583000000000022000	      0.35768888128151466000	      0.87132681003418133000	     -0.32958797640829013000	     -3.52912985110517540000	      0.85779148980055686000	      2.27446327752011830000	     30.46674394424228200000	     -3.22847899151696800000	      4.62061456376890690000	    -28.04093882947232800000	      1.03974639187183990000	      0.00000000000000452954	     -0.00000000000001132440	     -2.11886917478020820000	      5.29134246320210180000	     10.80323390793344300000	     -4.58508989806195280000	      9.14781135348881770000	     -0.00000000000003272919	     -0.00000000000003356527	     -3.70806676094094940000	     -0.04923292003817789100	     -2.12669217344347850000	      0.50249760520105557000	     -0.09745635942747195300	      0.00980899458087845790	    -11.82226755136745100000	     -2.27853454760861760000	      9.67382546917466260000	     -0.50280675437083988000	      9.56974863150070650000	     20.41281298880906500000	    271.17705690875766000000	    -20.72244458874306300000	      0.00000000000001772340	     -0.00000000000000469403	    -21.76705393554727800000	     -1.74403682108273570000	     13.65112014706721400000	     -7.51378281553739580000	     32.84366308963273400000	     -0.00000000000018450595	     -0.00000000000042420286	      7.57280649429044140000	     -2.03394496314648170000	     -6.44760378916331420000
      0.62633000000000028000	      0.35794024045443451000	      0.87127804587874014000	     -0.32958300167003690000	     -3.53503144519387600000	      0.85667215495085980000	      2.27926837006654860000	     30.46641938803851700000	     -3.22370958922206350000	      4.63088975949128920000	    -27.90533902713170600000	      1.02929518253151240000	      0.00000000000000453843	     -0.00000000000001132688	     -2.12976253589121310000	      5.29048958479543160000	     10.80998850346889900000	     -4.58886632424967540000	      9.16422467982900460000	     -0.00000000000003282351	     -0.00000000000003378367	     -3.70428152570580770000	     -0.05027144657551476500	     -2.12985962890629970000	      0.50293977272385115000	     -0.09759969126669504300	      0.01008919784297912900	    -11.78389259460545100000	     -2.19890398704476730000	      9.54695099800786910000	     -0.79577479716908717000	      9.50768600031015510000	     20.68781775770976600000	    271.22167276495668000000	    -21.08215647661553800000	      0.00000000000001812377	     -0.00000000000000475361	    -21.80670825390934900000	     -1.66762695106825400000	     13.36713570513105200000	     -7.59181279495731420000	     32.80970383272150300000	     -0.00000000000020878095	     -0.00000000000043283518	      7.56800909784418700000	     -2.11998981750027490000	     -6.22212256677353710000
